<svg width="20" height="20" viewBox="0 0 20 20" fill="none" xmlns="http://www.w3.org/2000/svg">
<path d="M10 0C4.475 0 0 4.475 0 10C0 15.525 4.475 20 10 20C15.525 20 20 15.525 20 10C20 4.475 15.525 0 10 0ZM10 18C5.59 18 2 14.41 2 10C2 5.59 5.59 2 10 2C14.41 2 18 5.59 18 10C18 14.41 14.41 18 10 18ZM8.08 8.865C8.135 8.54 8.235 8.25 8.38 7.995C8.525 7.74 8.725 7.535 8.97 7.38C9.205 7.235 9.5 7.155 9.865 7.15C10.105 7.155 10.325 7.195 10.515 7.28C10.72 7.37 10.89 7.49 11.035 7.64C11.18 7.79 11.29 7.97 11.37 8.17C11.45 8.37 11.495 8.585 11.505 8.81H13.295C13.28 8.34 13.185 7.91 13.02 7.52C12.855 7.13 12.615 6.795 12.315 6.51C12.015 6.225 11.655 6.01 11.235 5.855C10.815 5.7 10.35 5.62 9.84 5.62C9.19 5.62 8.625 5.73 8.145 5.955C7.665 6.18 7.265 6.485 6.945 6.875C6.625 7.265 6.385 7.715 6.23 8.23C6.075 8.745 6 9.29 6 9.865V10.14C6 10.72 6.08 11.265 6.235 11.78C6.39 12.295 6.63 12.745 6.95 13.13C7.27 13.515 7.67 13.82 8.155 14.045C8.64 14.27 9.205 14.38 9.855 14.38C10.325 14.38 10.765 14.305 11.175 14.15C11.585 13.995 11.945 13.785 12.255 13.515C12.565 13.245 12.815 12.935 12.995 12.575C13.175 12.215 13.28 11.835 13.295 11.425H11.505C11.495 11.635 11.445 11.825 11.355 12.005C11.265 12.185 11.145 12.335 10.995 12.46C10.845 12.585 10.67 12.685 10.47 12.755C10.28 12.82 10.08 12.855 9.865 12.855C9.505 12.845 9.21 12.77 8.97 12.62C8.72 12.46 8.52 12.255 8.375 12C8.23 11.745 8.13 11.455 8.075 11.125C8.02 10.795 8 10.475 8 10.14V9.865C8 9.525 8.025 9.19 8.08 8.865Z" fill="#DAD7D7"/>
</svg>
